<svg xmlns="http://www.w3.org/2000/svg" width="579" height="574" viewBox="0 0 579 574" version="1.1"><path d="M 286.750 10.732 C 289.087 10.943, 292.913 10.943, 295.250 10.732 C 297.587 10.522, 295.675 10.349, 291 10.349 C 286.325 10.349, 284.413 10.522, 286.750 10.732 M 261.468 399.950 C 258.674 401.083, 252.513 408.074, 250.043 412.915 C 247.620 417.665, 247.429 421.281, 249.510 423.008 C 251.791 424.902, 264.446 423.712, 270.500 421.035 C 277.570 417.908, 284.174 418.568, 295 423.482 C 304.170 427.644, 312.016 429.062, 314.495 427.004 C 316.991 424.933, 316.209 419.682, 312.250 411.929 C 307.788 403.191, 305.444 401.295, 297.495 399.993 C 290.313 398.817, 264.340 398.786, 261.468 399.950 M 258.667 403.667 C 257.536 404.797, 257.989 408.402, 259.516 410.420 C 263.325 415.454, 272 418.071, 272 414.185 C 272 413.091, 270.590 411.698, 268.449 410.677 C 266.496 409.746, 264.133 407.640, 263.199 405.998 C 261.545 403.092, 260.024 402.310, 258.667 403.667 M 299.792 407.748 C 299.068 409.259, 296.793 411.288, 294.737 412.256 C 288.566 415.162, 290.725 419.599, 297.038 416.984 C 300.943 415.367, 305 410.495, 305 407.423 C 305 403.978, 301.494 404.196, 299.792 407.748 M 271.159 424.870 L 262.817 426.500 265.159 428.625 C 269.715 432.761, 272.089 433.366, 283.211 433.226 C 290.773 433.131, 294.817 432.629, 296.961 431.520 C 298.633 430.656, 300 429.594, 300 429.161 C 300 428.430, 287.696 424.684, 282 423.680 C 280.625 423.438, 275.746 423.973, 271.159 424.870" stroke="none" fill="#ffffff" fill-rule="evenodd"/><path d="M 280 47.630 C 230.074 49.811, 180.417 68.630, 141 100.309 C 132.261 107.332, 113.330 126.064, 106.949 134 C 104.517 137.025, 102.293 139.725, 102.007 140 C 100.151 141.781, 90.518 156.063, 85.663 164.232 C 69.186 191.953, 58.436 222.962, 53.850 256 C 53.066 261.645, 52.554 274.427, 52.588 287.500 C 52.642 308.576, 53.649 319.310, 57.042 335 C 57.578 337.475, 58.296 340.963, 58.639 342.750 C 59.245 345.912, 59.400 346, 64.381 345.999 C 71.076 345.997, 81.547 343.898, 91.500 340.563 C 99.953 337.730, 102.292 336.752, 113.497 331.364 C 117.345 329.514, 121.057 328, 121.747 328 C 122.436 328, 123 327.550, 123 327 C 123 326.450, 123.564 326, 124.253 326 C 124.943 326, 128.655 324.486, 132.503 322.636 C 136.352 320.786, 141.300 318.488, 143.500 317.531 C 145.700 316.573, 151.325 313.972, 156 311.751 C 165.509 307.234, 165.850 308.001, 153 305.009 C 146.724 303.547, 137.730 299.219, 133.894 295.814 C 130.558 292.853, 127.299 286.455, 126.850 281.986 L 126.500 278.500 144 278.427 C 159.616 278.362, 161.922 278.134, 165.422 276.304 C 169.157 274.352, 169.243 274.201, 167.238 273.127 C 166.079 272.507, 164.003 272, 162.625 272 C 161.246 272, 159.840 271.550, 159.500 271 C 159.160 270.450, 157.810 270, 156.500 270 C 155.190 270, 153.840 269.550, 153.500 269 C 153.160 268.450, 152.121 267.994, 151.191 267.987 C 149.128 267.972, 134.411 260.553, 132.345 258.487 C 131.526 257.669, 130.429 257, 129.906 257 C 128.124 257, 117.818 245.517, 114.455 239.783 C 109.968 232.134, 108.349 227.045, 106.529 214.875 C 104.721 202.781, 104.608 194.690, 106.086 183.052 C 107.421 172.535, 110.365 160.745, 112.204 158.550 C 112.642 158.027, 113 157.045, 113 156.366 C 113 155.688, 114.462 152.745, 116.250 149.826 C 122.373 139.830, 129.670 132.497, 138.032 127.936 C 140.489 126.596, 142.725 125.269, 143 124.987 C 144.444 123.504, 160.134 116.741, 165.750 115.181 C 180.398 111.112, 186.664 110.083, 201.041 109.387 C 215.917 108.666, 235.835 109.725, 232.500 111.059 C 231.400 111.499, 228.847 111.891, 226.826 111.930 C 224.806 111.968, 220.756 112.479, 217.826 113.065 C 214.897 113.651, 210.025 114.598, 207 115.170 C 203.975 115.742, 200.600 116.571, 199.500 117.012 C 198.400 117.453, 195.250 118.387, 192.500 119.088 C 182.811 121.555, 168.381 129.689, 161.437 136.599 C 157.897 140.122, 155 143.497, 155 144.098 C 155 144.699, 154.184 146.386, 153.186 147.846 C 149.792 152.814, 148.496 159.081, 148.605 170 C 148.702 179.697, 148.953 180.985, 151.891 186.841 C 157.240 197.502, 168.421 207.184, 181.210 212.231 C 188.155 214.971, 207.953 215.270, 215.117 212.743 C 221.783 210.391, 236.457 208.001, 244 208.039 C 250.466 208.071, 263.413 209.911, 272 212.019 C 274.475 212.626, 277.743 213.372, 279.262 213.677 C 280.781 213.981, 282.271 214.629, 282.571 215.115 C 282.872 215.602, 283.931 216, 284.926 216 C 287.223 216, 300.562 221.182, 307.500 224.769 C 309.897 226.009, 313.713 226.282, 326.500 226.126 C 342.681 225.929, 349.415 226.781, 360.500 230.431 C 366.593 232.436, 382.372 240.025, 382.833 241.172 C 383.017 241.627, 383.618 242, 384.170 242 C 385.323 242, 393.767 247.743, 396 250.047 C 400.354 254.539, 403.813 256, 410.094 256 C 418.454 256, 433.765 253.227, 438.236 250.903 C 439.191 250.406, 440.486 250, 441.113 250 C 442.692 250, 453.377 244.496, 456.057 242.302 C 465.812 234.315, 471.403 223.385, 474.021 207.186 C 475.275 199.421, 474.363 191.236, 471.356 183.280 C 470.571 181.201, 469.667 178.713, 469.347 177.750 C 469.028 176.787, 468.424 176, 468.005 176 C 467.586 176, 466.725 174.751, 466.093 173.225 C 464.942 170.445, 451.698 156.967, 447 153.793 L 444.500 152.105 448.869 152.052 C 452.758 152.006, 465.707 155.565, 467 157.035 C 467.275 157.348, 469.075 158.341, 471 159.241 C 476.159 161.653, 480.858 165.615, 487.602 173.239 C 490.863 176.924, 498.259 190.734, 499.257 195 C 499.579 196.375, 500.504 200.200, 501.314 203.500 C 504.323 215.767, 505.354 229.518, 504.005 239.372 C 502.014 253.910, 496.633 268.173, 490.306 275.682 C 485.379 281.530, 477.585 289.014, 473.616 291.707 C 471.352 293.243, 468.912 295.056, 468.193 295.735 C 463.694 299.988, 439.134 312, 434.937 312 C 432.183 312, 431.779 313.535, 433.468 317.578 C 434.311 319.594, 435 322.695, 435 324.467 C 435 328.098, 437.307 330.692, 441.643 331.935 C 444.561 332.771, 444.427 332.929, 439.500 334.469 C 437.349 335.141, 437.650 337.096, 440 337.710 C 442.677 338.410, 442.522 339.477, 439.250 342.870 C 430.775 351.658, 413.144 354.122, 395.500 348.983 C 383.116 345.377, 380.752 344.862, 380.093 345.631 C 379.390 346.451, 378.249 350.139, 376.036 358.750 C 375.506 360.813, 374.174 365.650, 373.076 369.500 C 370.103 379.924, 365.009 401.726, 362.971 412.750 C 362.437 415.637, 361.520 420.587, 360.934 423.750 C 359.072 433.788, 358.182 440.960, 355.041 471.250 C 354.513 476.338, 353.628 484.550, 353.073 489.500 C 352.519 494.450, 351.629 502.435, 351.095 507.245 C 350.561 512.055, 349.845 516.442, 349.503 516.995 C 348.637 518.396, 349.431 518.273, 358.500 515.599 C 395.102 504.809, 430.569 484.022, 457.253 457.723 C 466.721 448.390, 472.980 441.534, 477.995 435 C 479.894 432.525, 481.721 430.275, 482.055 430 C 482.998 429.222, 492.232 415.268, 496.944 407.500 C 501.010 400.797, 511 380.988, 511 379.630 C 511 379.271, 511.868 377.071, 512.928 374.739 C 518.631 362.201, 524.883 338.524, 528.175 317 C 529.895 305.760, 529.867 267.319, 528.131 255.500 C 524.208 228.781, 517.856 207.300, 507.205 184.734 C 502.832 175.467, 491.687 155.508, 490.045 154 C 489.745 153.725, 487.499 150.575, 485.053 147 C 482.607 143.425, 480.351 140.275, 480.039 140 C 479.727 139.725, 477.477 137.025, 475.037 134 C 468.495 125.888, 448.565 106.193, 440.303 99.676 C 394.187 63.302, 338.102 45.093, 280 47.630 M 15.252 276.500 C 15.263 278.700, 15.468 279.482, 15.707 278.238 C 15.946 276.994, 15.937 275.194, 15.687 274.238 C 15.437 273.282, 15.241 274.300, 15.252 276.500 M 222.541 301.019 C 223.281 307.062, 225.185 313.524, 227.603 318.200 C 229.663 322.182, 235.518 328, 237.467 328 C 238.310 328, 239 328.340, 239 328.757 C 239 329.804, 246.372 332.008, 249.734 331.965 C 251.255 331.945, 253.625 331.286, 255 330.500 L 257.500 329.071 254.482 329.035 C 252.822 329.016, 249.809 327.875, 247.785 326.500 C 245.762 325.125, 242.794 324, 241.189 324 C 239.371 324, 237.280 323.007, 235.636 321.364 C 232.900 318.628, 232.112 314.463, 234.199 313.767 C 235.472 313.343, 232.177 307.924, 228.797 304.883 C 227.809 303.993, 226.999 302.868, 226.999 302.383 C 226.998 301.897, 225.844 300.158, 224.434 298.519 L 221.870 295.537 222.541 301.019 M 358.833 312.757 C 358.581 313.329, 349.946 320.892, 345 324.871 C 344.725 325.093, 345.063 325.475, 345.750 325.720 C 347.997 326.523, 347.065 329.767, 343.799 332.516 C 341.160 334.737, 339.916 335.118, 336.714 334.688 C 333.941 334.317, 331.890 334.722, 329.542 336.107 C 326.952 337.636, 325.698 337.836, 323.627 337.048 C 320.673 335.925, 320.148 337.049, 322.656 339.128 C 323.768 340.049, 326.851 340.472, 332.038 340.414 C 344.356 340.278, 350.865 335.495, 357.619 321.616 C 359.479 317.796, 361 314.069, 361 313.335 C 361 311.915, 359.393 311.486, 358.833 312.757 M 285.264 433.718 C 286.784 433.947, 289.034 433.941, 290.264 433.704 C 291.494 433.467, 290.250 433.279, 287.500 433.286 C 284.750 433.294, 283.744 433.488, 285.264 433.718" stroke="none" fill="#ee1b24" fill-rule="evenodd"/><path d="M 267.500 11.599 C 265.850 11.833, 258.875 12.744, 252 13.624 C 185.686 22.118, 119.943 59.390, 76.658 113.031 C 59.681 134.069, 41.493 165.927, 32.510 190.360 C 16.681 233.413, 11.649 283.432, 18.612 328.500 C 35.552 438.151, 117.549 527.554, 225.500 554.072 C 248.301 559.673, 262.864 561.318, 290 561.357 C 317.037 561.396, 330.009 560.076, 352 555.048 C 437.971 535.392, 509.443 476.019, 544.061 395.500 C 573.547 326.916, 574.036 248.556, 545.403 180.215 C 508.075 91.117, 427.533 28.473, 331 13.455 C 320.971 11.895, 274.925 10.549, 267.500 11.599 M 280 47.630 C 230.074 49.811, 180.417 68.630, 141 100.309 C 132.261 107.332, 113.330 126.064, 106.949 134 C 104.517 137.025, 102.293 139.725, 102.007 140 C 100.151 141.781, 90.518 156.063, 85.663 164.232 C 69.186 191.953, 58.436 222.962, 53.850 256 C 53.066 261.645, 52.554 274.427, 52.588 287.500 C 52.642 308.576, 53.649 319.310, 57.042 335 C 57.578 337.475, 58.296 340.963, 58.639 342.750 C 59.245 345.912, 59.400 346, 64.381 345.999 C 71.076 345.997, 81.547 343.898, 91.500 340.563 C 99.953 337.730, 102.292 336.752, 113.497 331.364 C 117.345 329.514, 121.057 328, 121.747 328 C 122.436 328, 123 327.550, 123 327 C 123 326.450, 123.564 326, 124.253 326 C 124.943 326, 128.655 324.486, 132.503 322.636 C 136.352 320.786, 141.300 318.488, 143.500 317.531 C 145.700 316.573, 151.325 313.972, 156 311.751 C 165.509 307.234, 165.850 308.001, 153 305.009 C 146.724 303.547, 137.730 299.219, 133.894 295.814 C 130.558 292.853, 127.299 286.455, 126.850 281.986 L 126.500 278.500 144 278.427 C 159.616 278.362, 161.922 278.134, 165.422 276.304 C 169.157 274.352, 169.243 274.201, 167.238 273.127 C 166.079 272.507, 164.003 272, 162.625 272 C 161.246 272, 159.840 271.550, 159.500 271 C 159.160 270.450, 157.810 270, 156.500 270 C 155.190 270, 153.840 269.550, 153.500 269 C 153.160 268.450, 152.121 267.994, 151.191 267.987 C 149.128 267.972, 134.411 260.553, 132.345 258.487 C 131.526 257.669, 130.429 257, 129.906 257 C 128.124 257, 117.818 245.517, 114.455 239.783 C 109.968 232.134, 108.349 227.045, 106.529 214.875 C 104.721 202.781, 104.608 194.690, 106.086 183.052 C 107.421 172.535, 110.365 160.745, 112.204 158.550 C 112.642 158.027, 113 157.045, 113 156.366 C 113 155.688, 114.462 152.745, 116.250 149.826 C 122.373 139.830, 129.670 132.497, 138.032 127.936 C 140.489 126.596, 142.725 125.269, 143 124.987 C 144.444 123.504, 160.134 116.741, 165.750 115.181 C 180.398 111.112, 186.664 110.083, 201.041 109.387 C 215.917 108.666, 235.835 109.725, 232.500 111.059 C 231.400 111.499, 228.847 111.891, 226.826 111.930 C 224.806 111.968, 220.756 112.479, 217.826 113.065 C 214.897 113.651, 210.025 114.598, 207 115.170 C 203.975 115.742, 200.600 116.571, 199.500 117.012 C 198.400 117.453, 195.250 118.387, 192.500 119.088 C 182.811 121.555, 168.381 129.689, 161.437 136.599 C 157.897 140.122, 155 143.497, 155 144.098 C 155 144.699, 154.184 146.386, 153.186 147.846 C 149.792 152.814, 148.496 159.081, 148.605 170 C 148.702 179.697, 148.953 180.985, 151.891 186.841 C 157.240 197.502, 168.421 207.184, 181.210 212.231 C 188.155 214.971, 207.953 215.270, 215.117 212.743 C 221.783 210.391, 236.457 208.001, 244 208.039 C 250.466 208.071, 263.413 209.911, 272 212.019 C 274.475 212.626, 277.743 213.372, 279.262 213.677 C 280.781 213.981, 282.271 214.629, 282.571 215.115 C 282.872 215.602, 283.931 216, 284.926 216 C 287.223 216, 300.562 221.182, 307.500 224.769 C 309.897 226.009, 313.713 226.282, 326.500 226.126 C 342.681 225.929, 349.415 226.781, 360.500 230.431 C 366.593 232.436, 382.372 240.025, 382.833 241.172 C 383.017 241.627, 383.618 242, 384.170 242 C 385.323 242, 393.767 247.743, 396 250.047 C 400.354 254.539, 403.813 256, 410.094 256 C 418.454 256, 433.765 253.227, 438.236 250.903 C 439.191 250.406, 440.486 250, 441.113 250 C 442.692 250, 453.377 244.496, 456.057 242.302 C 465.812 234.315, 471.403 223.385, 474.021 207.186 C 475.275 199.421, 474.363 191.236, 471.356 183.280 C 470.571 181.201, 469.667 178.713, 469.347 177.750 C 469.028 176.787, 468.424 176, 468.005 176 C 467.586 176, 466.725 174.751, 466.093 173.225 C 464.942 170.445, 451.698 156.967, 447 153.793 L 444.500 152.105 448.869 152.052 C 452.758 152.006, 465.707 155.565, 467 157.035 C 467.275 157.348, 469.075 158.341, 471 159.241 C 476.159 161.653, 480.858 165.615, 487.602 173.239 C 490.863 176.924, 498.259 190.734, 499.257 195 C 499.579 196.375, 500.504 200.200, 501.314 203.500 C 504.323 215.767, 505.354 229.518, 504.005 239.372 C 502.014 253.910, 496.633 268.173, 490.306 275.682 C 485.379 281.530, 477.585 289.014, 473.616 291.707 C 471.352 293.243, 468.912 295.056, 468.193 295.735 C 463.694 299.988, 439.134 312, 434.937 312 C 432.183 312, 431.779 313.535, 433.468 317.578 C 434.311 319.594, 435 322.695, 435 324.467 C 435 328.098, 437.307 330.692, 441.643 331.935 C 444.561 332.771, 444.427 332.929, 439.500 334.469 C 437.349 335.141, 437.650 337.096, 440 337.710 C 442.677 338.410, 442.522 339.477, 439.250 342.870 C 430.775 351.658, 413.144 354.122, 395.500 348.983 C 383.116 345.377, 380.752 344.862, 380.093 345.631 C 379.390 346.451, 378.249 350.139, 376.036 358.750 C 375.506 360.813, 374.174 365.650, 373.076 369.500 C 370.103 379.924, 365.009 401.726, 362.971 412.750 C 362.437 415.637, 361.520 420.587, 360.934 423.750 C 359.072 433.788, 358.182 440.960, 355.041 471.250 C 354.513 476.338, 353.628 484.550, 353.073 489.500 C 352.519 494.450, 351.629 502.435, 351.095 507.245 C 350.561 512.055, 349.845 516.442, 349.503 516.995 C 348.637 518.396, 349.431 518.273, 358.500 515.599 C 395.102 504.809, 430.569 484.022, 457.253 457.723 C 466.721 448.390, 472.980 441.534, 477.995 435 C 479.894 432.525, 481.721 430.275, 482.055 430 C 482.998 429.222, 492.232 415.268, 496.944 407.500 C 501.010 400.797, 511 380.988, 511 379.630 C 511 379.271, 511.868 377.071, 512.928 374.739 C 518.631 362.201, 524.883 338.524, 528.175 317 C 529.895 305.760, 529.867 267.319, 528.131 255.500 C 524.208 228.781, 517.856 207.300, 507.205 184.734 C 502.832 175.467, 491.687 155.508, 490.045 154 C 489.745 153.725, 487.499 150.575, 485.053 147 C 482.607 143.425, 480.351 140.275, 480.039 140 C 479.727 139.725, 477.477 137.025, 475.037 134 C 468.495 125.888, 448.565 106.193, 440.303 99.676 C 394.187 63.302, 338.102 45.093, 280 47.630 M 222.541 301.019 C 223.281 307.062, 225.185 313.524, 227.603 318.200 C 229.663 322.182, 235.518 328, 237.467 328 C 238.310 328, 239 328.340, 239 328.757 C 239 329.804, 246.372 332.008, 249.734 331.965 C 251.255 331.945, 253.625 331.286, 255 330.500 L 257.500 329.071 254.482 329.035 C 252.822 329.016, 249.809 327.875, 247.785 326.500 C 245.762 325.125, 242.794 324, 241.189 324 C 239.371 324, 237.280 323.007, 235.636 321.364 C 232.900 318.628, 232.112 314.463, 234.199 313.767 C 235.472 313.343, 232.177 307.924, 228.797 304.883 C 227.809 303.993, 226.999 302.868, 226.999 302.383 C 226.998 301.897, 225.844 300.158, 224.434 298.519 L 221.870 295.537 222.541 301.019 M 358.833 312.757 C 358.581 313.329, 349.946 320.892, 345 324.871 C 344.725 325.093, 345.063 325.475, 345.750 325.720 C 347.997 326.523, 347.065 329.767, 343.799 332.516 C 341.160 334.737, 339.916 335.118, 336.714 334.688 C 333.941 334.317, 331.890 334.722, 329.542 336.107 C 326.952 337.636, 325.698 337.836, 323.627 337.048 C 320.673 335.925, 320.148 337.049, 322.656 339.128 C 323.768 340.049, 326.851 340.472, 332.038 340.414 C 344.356 340.278, 350.865 335.495, 357.619 321.616 C 359.479 317.796, 361 314.069, 361 313.335 C 361 311.915, 359.393 311.486, 358.833 312.757 M 259.341 401.057 C 255.921 403.249, 248.604 413.897, 247.639 418.088 C 247.288 419.611, 247.614 421.458, 248.431 422.574 C 250.473 425.367, 259.573 424.894, 269.460 421.482 C 279.365 418.063, 283.288 418.437, 295.755 423.986 C 309.643 430.169, 316.433 429.538, 316.222 422.086 C 316.091 417.498, 311.120 407.313, 307.430 404.073 C 302.888 400.085, 296.599 398.997, 278.201 399.017 C 264.163 399.032, 262.165 399.248, 259.341 401.057 M 258.667 403.667 C 255.816 406.517, 262.377 414.732, 268.250 415.666 C 271.559 416.192, 272 416.020, 272 414.208 C 272 412.756, 270.995 411.823, 268.566 411.022 C 266.401 410.307, 264.380 408.615, 263.100 406.444 C 261.099 403.053, 259.981 402.353, 258.667 403.667 M 299.773 408.048 C 298.823 409.717, 296.460 411.745, 294.523 412.555 C 288.572 415.041, 290.335 419.035, 296.487 417.004 C 300.659 415.627, 305 410.742, 305 407.423 C 305 403.943, 301.898 404.314, 299.773 408.048 M 275 424 C 273.625 424.440, 270.363 424.845, 267.750 424.900 C 262.345 425.014, 261.873 426.051, 265.636 429.538 C 269.117 432.765, 273.884 433.988, 283.007 433.994 C 291.444 434.001, 296.365 432.885, 299.196 430.323 C 301.047 428.647, 300.763 428.484, 291.308 425.795 C 281.082 422.886, 279.144 422.673, 275 424" stroke="none" fill="#000000" fill-rule="evenodd"/><path d="M 267.500 11.599 C 265.850 11.833, 258.875 12.744, 252 13.624 C 185.686 22.118, 119.943 59.390, 76.658 113.031 C 59.681 134.069, 41.493 165.927, 32.510 190.360 C 16.681 233.413, 11.649 283.432, 18.612 328.500 C 35.552 438.151, 117.549 527.554, 225.500 554.072 C 248.301 559.673, 262.864 561.318, 290 561.357 C 317.037 561.396, 330.009 560.076, 352 555.048 C 437.971 535.392, 509.443 476.019, 544.061 395.500 C 573.547 326.916, 574.036 248.556, 545.403 180.215 C 508.075 91.117, 427.533 28.473, 331 13.455 C 320.971 11.895, 274.925 10.549, 267.500 11.599 M 280 47.630 C 230.074 49.811, 180.417 68.630, 141 100.309 C 132.261 107.332, 113.330 126.064, 106.949 134 C 104.517 137.025, 102.293 139.725, 102.007 140 C 100.151 141.781, 90.518 156.063, 85.663 164.232 C 69.186 191.953, 58.436 222.962, 53.850 256 C 53.066 261.645, 52.554 274.427, 52.588 287.500 C 52.642 308.576, 53.649 319.310, 57.042 335 C 57.578 337.475, 58.296 340.963, 58.639 342.750 C 59.245 345.912, 59.400 346, 64.381 345.999 C 71.076 345.997, 81.547 343.898, 91.500 340.563 C 99.953 337.730, 102.292 336.752, 113.497 331.364 C 117.345 329.514, 121.057 328, 121.747 328 C 122.436 328, 123 327.550, 123 327 C 123 326.450, 123.564 326, 124.253 326 C 124.943 326, 128.655 324.486, 132.503 322.636 C 136.352 320.786, 141.300 318.488, 143.500 317.531 C 145.700 316.573, 151.325 313.972, 156 311.751 C 165.509 307.234, 165.850 308.001, 153 305.009 C 146.724 303.547, 137.730 299.219, 133.894 295.814 C 130.558 292.853, 127.299 286.455, 126.850 281.986 L 126.500 278.500 144 278.427 C 159.616 278.362, 161.922 278.134, 165.422 276.304 C 169.157 274.352, 169.243 274.201, 167.238 273.127 C 166.079 272.507, 164.003 272, 162.625 272 C 161.246 272, 159.840 271.550, 159.500 271 C 159.160 270.450, 157.810 270, 156.500 270 C 155.190 270, 153.840 269.550, 153.500 269 C 153.160 268.450, 152.121 267.994, 151.191 267.987 C 149.128 267.972, 134.411 260.553, 132.345 258.487 C 131.526 257.669, 130.429 257, 129.906 257 C 128.124 257, 117.818 245.517, 114.455 239.783 C 109.968 232.134, 108.349 227.045, 106.529 214.875 C 104.721 202.781, 104.608 194.690, 106.086 183.052 C 107.421 172.535, 110.365 160.745, 112.204 158.550 C 112.642 158.027, 113 157.045, 113 156.366 C 113 155.688, 114.462 152.745, 116.250 149.826 C 122.373 139.830, 129.670 132.497, 138.032 127.936 C 140.489 126.596, 142.725 125.269, 143 124.987 C 144.444 123.504, 160.134 116.741, 165.750 115.181 C 180.398 111.112, 186.664 110.083, 201.041 109.387 C 215.917 108.666, 235.835 109.725, 232.500 111.059 C 231.400 111.499, 228.847 111.891, 226.826 111.930 C 224.806 111.968, 220.756 112.479, 217.826 113.065 C 214.897 113.651, 210.025 114.598, 207 115.170 C 203.975 115.742, 200.600 116.571, 199.500 117.012 C 198.400 117.453, 195.250 118.387, 192.500 119.088 C 182.811 121.555, 168.381 129.689, 161.437 136.599 C 157.897 140.122, 155 143.497, 155 144.098 C 155 144.699, 154.184 146.386, 153.186 147.846 C 149.792 152.814, 148.496 159.081, 148.605 170 C 148.702 179.697, 148.953 180.985, 151.891 186.841 C 157.240 197.502, 168.421 207.184, 181.210 212.231 C 188.155 214.971, 207.953 215.270, 215.117 212.743 C 221.783 210.391, 236.457 208.001, 244 208.039 C 250.466 208.071, 263.413 209.911, 272 212.019 C 274.475 212.626, 277.743 213.372, 279.262 213.677 C 280.781 213.981, 282.271 214.629, 282.571 215.115 C 282.872 215.602, 283.931 216, 284.926 216 C 287.223 216, 300.562 221.182, 307.500 224.769 C 309.897 226.009, 313.713 226.282, 326.500 226.126 C 342.681 225.929, 349.415 226.781, 360.500 230.431 C 366.593 232.436, 382.372 240.025, 382.833 241.172 C 383.017 241.627, 383.618 242, 384.170 242 C 385.323 242, 393.767 247.743, 396 250.047 C 400.354 254.539, 403.813 256, 410.094 256 C 418.454 256, 433.765 253.227, 438.236 250.903 C 439.191 250.406, 440.486 250, 441.113 250 C 442.692 250, 453.377 244.496, 456.057 242.302 C 465.812 234.315, 471.403 223.385, 474.021 207.186 C 475.275 199.421, 474.363 191.236, 471.356 183.280 C 470.571 181.201, 469.667 178.713, 469.347 177.750 C 469.028 176.787, 468.424 176, 468.005 176 C 467.586 176, 466.725 174.751, 466.093 173.225 C 464.942 170.445, 451.698 156.967, 447 153.793 L 444.500 152.105 448.869 152.052 C 452.758 152.006, 465.707 155.565, 467 157.035 C 467.275 157.348, 469.075 158.341, 471 159.241 C 476.159 161.653, 480.858 165.615, 487.602 173.239 C 490.863 176.924, 498.259 190.734, 499.257 195 C 499.579 196.375, 500.504 200.200, 501.314 203.500 C 504.323 215.767, 505.354 229.518, 504.005 239.372 C 502.014 253.910, 496.633 268.173, 490.306 275.682 C 485.379 281.530, 477.585 289.014, 473.616 291.707 C 471.352 293.243, 468.912 295.056, 468.193 295.735 C 463.694 299.988, 439.134 312, 434.937 312 C 432.183 312, 431.779 313.535, 433.468 317.578 C 434.311 319.594, 435 322.695, 435 324.467 C 435 328.098, 437.307 330.692, 441.643 331.935 C 444.561 332.771, 444.427 332.929, 439.500 334.469 C 437.349 335.141, 437.650 337.096, 440 337.710 C 442.677 338.410, 442.522 339.477, 439.250 342.870 C 430.775 351.658, 413.144 354.122, 395.500 348.983 C 383.116 345.377, 380.752 344.862, 380.093 345.631 C 379.390 346.451, 378.249 350.139, 376.036 358.750 C 375.506 360.813, 374.174 365.650, 373.076 369.500 C 370.103 379.924, 365.009 401.726, 362.971 412.750 C 362.437 415.637, 361.520 420.587, 360.934 423.750 C 359.072 433.788, 358.182 440.960, 355.041 471.250 C 354.513 476.338, 353.628 484.550, 353.073 489.500 C 352.519 494.450, 351.629 502.435, 351.095 507.245 C 350.561 512.055, 349.845 516.442, 349.503 516.995 C 348.637 518.396, 349.431 518.273, 358.500 515.599 C 395.102 504.809, 430.569 484.022, 457.253 457.723 C 466.721 448.390, 472.980 441.534, 477.995 435 C 479.894 432.525, 481.721 430.275, 482.055 430 C 482.998 429.222, 492.232 415.268, 496.944 407.500 C 501.010 400.797, 511 380.988, 511 379.630 C 511 379.271, 511.868 377.071, 512.928 374.739 C 518.631 362.201, 524.883 338.524, 528.175 317 C 529.895 305.760, 529.867 267.319, 528.131 255.500 C 524.208 228.781, 517.856 207.300, 507.205 184.734 C 502.832 175.467, 491.687 155.508, 490.045 154 C 489.745 153.725, 487.499 150.575, 485.053 147 C 482.607 143.425, 480.351 140.275, 480.039 140 C 479.727 139.725, 477.477 137.025, 475.037 134 C 468.495 125.888, 448.565 106.193, 440.303 99.676 C 394.187 63.302, 338.102 45.093, 280 47.630 M 222.541 301.019 C 223.281 307.062, 225.185 313.524, 227.603 318.200 C 229.663 322.182, 235.518 328, 237.467 328 C 238.310 328, 239 328.340, 239 328.757 C 239 329.804, 246.372 332.008, 249.734 331.965 C 251.255 331.945, 253.625 331.286, 255 330.500 L 257.500 329.071 254.482 329.035 C 252.822 329.016, 249.809 327.875, 247.785 326.500 C 245.762 325.125, 242.794 324, 241.189 324 C 239.371 324, 237.280 323.007, 235.636 321.364 C 232.900 318.628, 232.112 314.463, 234.199 313.767 C 235.472 313.343, 232.177 307.924, 228.797 304.883 C 227.809 303.993, 226.999 302.868, 226.999 302.383 C 226.998 301.897, 225.844 300.158, 224.434 298.519 L 221.870 295.537 222.541 301.019 M 358.833 312.757 C 358.581 313.329, 349.946 320.892, 345 324.871 C 344.725 325.093, 345.063 325.475, 345.750 325.720 C 347.997 326.523, 347.065 329.767, 343.799 332.516 C 341.160 334.737, 339.916 335.118, 336.714 334.688 C 333.941 334.317, 331.890 334.722, 329.542 336.107 C 326.952 337.636, 325.698 337.836, 323.627 337.048 C 320.673 335.925, 320.148 337.049, 322.656 339.128 C 323.768 340.049, 326.851 340.472, 332.038 340.414 C 344.356 340.278, 350.865 335.495, 357.619 321.616 C 359.479 317.796, 361 314.069, 361 313.335 C 361 311.915, 359.393 311.486, 358.833 312.757 M 259.341 401.057 C 255.921 403.249, 248.604 413.897, 247.639 418.088 C 247.288 419.611, 247.614 421.458, 248.431 422.574 C 250.473 425.367, 259.573 424.894, 269.460 421.482 C 279.365 418.063, 283.288 418.437, 295.755 423.986 C 309.643 430.169, 316.433 429.538, 316.222 422.086 C 316.091 417.498, 311.120 407.313, 307.430 404.073 C 302.888 400.085, 296.599 398.997, 278.201 399.017 C 264.163 399.032, 262.165 399.248, 259.341 401.057 M 258.667 403.667 C 255.816 406.517, 262.377 414.732, 268.250 415.666 C 271.559 416.192, 272 416.020, 272 414.208 C 272 412.756, 270.995 411.823, 268.566 411.022 C 266.401 410.307, 264.380 408.615, 263.100 406.444 C 261.099 403.053, 259.981 402.353, 258.667 403.667 M 299.773 408.048 C 298.823 409.717, 296.460 411.745, 294.523 412.555 C 288.572 415.041, 290.335 419.035, 296.487 417.004 C 300.659 415.627, 305 410.742, 305 407.423 C 305 403.943, 301.898 404.314, 299.773 408.048 M 275 424 C 273.625 424.440, 270.363 424.845, 267.750 424.900 C 262.345 425.014, 261.873 426.051, 265.636 429.538 C 269.117 432.765, 273.884 433.988, 283.007 433.994 C 291.444 434.001, 296.365 432.885, 299.196 430.323 C 301.047 428.647, 300.763 428.484, 291.308 425.795 C 281.082 422.886, 279.144 422.673, 275 424" stroke="none" fill="#000000" fill-rule="evenodd"/></svg>